<?xml version="1.0" standalone="no"?>
<!DOCTYPE svg PUBLIC "-//W3C//DTD SVG 20010904//EN"
 "http://www.w3.org/TR/2001/REC-SVG-20010904/DTD/svg10.dtd">
<svg version="1.0" xmlns="http://www.w3.org/2000/svg"
 width="512.000000pt" height="512.000000pt" viewBox="0 0 512.000000 512.000000"
 preserveAspectRatio="xMidYMid meet">
<metadata>
Created by potrace 1.14, written by Peter Selinger 2001-2017
</metadata>
<g transform="translate(0.000000,512.000000) scale(0.100000,-0.100000)"
fill="#000000" stroke="none">
<path d="M2400 5104 c-92 -18 -261 -84 -290 -114 -3 -3 -23 -17 -45 -32 -131
-87 -257 -255 -390 -518 -32 -63 -80 -158 -108 -210 -61 -116 -603 -1200 -680
-1360 -120 -249 -228 -479 -371 -785 -42 -88 -53 -113 -115 -257 -28 -65 -73
-169 -100 -231 -50 -115 -80 -207 -102 -312 -16 -77 -16 -312 0 -390 69 -336
274 -614 563 -765 80 -42 186 -85 235 -95 241 -51 452 -39 682 40 229 77 495
259 745 507 71 70 130 128 131 128 1 0 54 -51 116 -113 131 -130 157 -153 271
-240 174 -133 328 -225 463 -274 224 -83 498 -102 697 -50 258 68 481 222 628
434 92 132 163 306 185 453 3 20 8 47 11 60 15 75 10 246 -11 355 -17 89 -98
290 -222 555 -25 52 -92 196 -150 320 -58 124 -131 279 -162 345 -32 66 -88
185 -126 265 -80 168 -572 1153 -767 1535 -163 319 -229 420 -352 538 -96 92
-215 159 -348 198 -89 25 -290 33 -388 13z m280 -334 c83 -16 193 -72 256
-132 66 -62 119 -137 182 -257 76 -145 693 -1376 774 -1546 42 -88 116 -241
163 -340 48 -99 95 -198 105 -220 10 -22 48 -102 84 -179 36 -76 66 -139 66
-141 0 -2 25 -55 55 -120 30 -64 55 -118 55 -120 0 -2 16 -39 36 -82 68 -146
86 -188 105 -243 85 -241 66 -492 -53 -690 -197 -328 -583 -460 -963 -329
-127 44 -297 149 -472 291 -69 56 -293 276 -293 288 0 3 8 15 18 26 9 10 37
46 62 79 25 33 49 64 53 70 226 291 443 724 491 982 35 185 36 366 5 488 -53
208 -177 380 -359 501 -63 42 -187 99 -235 108 -11 2 -40 9 -65 16 -60 17
-266 20 -343 5 -149 -28 -263 -77 -372 -157 -164 -122 -269 -276 -320 -473
-20 -76 -27 -307 -12 -397 56 -343 272 -775 584 -1170 29 -37 53 -72 53 -77 0
-12 -2 -14 -110 -126 -180 -185 -423 -362 -599 -436 -337 -142 -685 -78 -919
169 -129 136 -200 317 -200 513 -1 171 36 283 233 703 62 133 127 273 145 311
237 511 582 1210 982 1995 196 382 227 437 311 530 115 129 319 194 497 160z
m80 -1879 c180 -68 296 -208 336 -406 6 -28 5 -182 -1 -230 -27 -205 -162
-510 -344 -775 -83 -122 -184 -260 -190 -260 -3 0 -18 17 -33 38 -14 20 -34
46 -43 57 -9 11 -45 62 -81 114 -249 359 -375 663 -378 916 -1 143 7 195 49
282 58 125 193 238 325 274 112 30 266 26 360 -10z"/>
</g>
</svg>
